PathFileType	4	(X/Y/Z)	pose_F01_0-78.trc
DataRate	CameraRate	NumFrames	NumMarkers	Units	OrigDataRate	OrigDataStartFrame	OrigNumFrames
30	30	6	21	m	30	52	78
Frame#	Time	CHip			RHip			RKnee			RAnkle			RBigToe			RSmallToe			RHeel			LHip			LKnee			LAnkle			LBigToe			LSmallToe			LHeel			Neck			Nose			RShoulder			RElbow			RWrist			LShoulder			LElbow			LWrist			
		X1	Y1	Z1	X2	Y2	Z2	X3	Y3	Z3	X4	Y4	Z4	X5	Y5	Z5	X6	Y6	Z6	X7	Y7	Z7	X8	Y8	Z8	X9	Y9	Z9	X10	Y10	Z10	X11	Y11	Z11	X12	Y12	Z12	X13	Y13	Z13	X14	Y14	Z14	X15	Y15	Z15	X16	Y16	Z16	X17	Y17	Z17	X18	Y18	Z18	X19	Y19	Z19	X20	Y20	Z20	X21	Y21	Z21	
52	1.7333333333333334	-0.23190894194737302	1.8936124835143684	-0.44677668107135543	-0.24600351836765957	1.8906848868017774	-0.3902767897113893	-0.26545656451491784	1.7168481557015087	-0.4477177870666516													-0.21677126221807202	1.8944455998286005	-0.5031571417201189	-0.21161711868543745	1.7404475950994158	-0.48643965383456	-0.21726670423821437	1.5948767328452063	-0.5504232376081666	-0.22229319359799804	1.557864243572134	-0.5860440625292525	-0.21813520423348606	1.5699984200107864	-0.6044114350713332	-0.21842513677310688	1.5776849672395106	-0.5288154641457818	-0.2301295231383544	2.0500075339043313	-0.4683869842312558	-0.24030006795202435	2.114597614549319	-0.5330220642292047	-0.24998935972297057	2.0492437366686587	-0.37659912798040884	-0.2664690212575503	1.9689413467015147	-0.28323597462981165	-0.2949318040488839	1.9298482582171803	-0.15117985073592596	-0.2093104667716808	2.049765515492234	-0.5571129111038409	-1.622934695534682	1.8849089618728188	0.9889804427517063	-0.1614894432924053	1.9380742022279922	-0.6863336815623161
53	1.7666666666666666	-0.2318782586682796	1.890854325207704	-0.44630868360830284	-0.24594434340407487	1.8884651985004755	-0.3897507436061825	-0.26545656451491784	1.7168481557015087	-0.4477177870666516													-0.21592183553748237	1.8925709072152668	-0.4999544504126375	-0.20985164130628553	1.7453941840188085	-0.4804861296440582	-0.21726670423821437	1.5948767328452063	-0.5504232376081666	-0.22229319359799804	1.557864243572134	-0.5860440625292525	-0.21813520423348606	1.5699984200107864	-0.6044114350713332	-0.21842513677310688	1.5776849672395106	-0.5288154641457818	-0.23015442488475488	2.0499738254902877	-0.4681849430069266	-0.24115669765195205	2.114725770066426	-0.5278800304096012	-0.2500740318030337	2.048218878975798	-0.37648964512974853	-0.2671042668418216	1.9711421127491195	-0.2782075912510925	-0.296894323901596	1.9475529888477452	-0.14743790429509276	-0.2103172440929608	2.0485793176437803	-0.5514066124113168	-0.18930297258758608	1.9696957150801055	-0.5731698769477342	-1.2976816770648645	1.8581553134003597	0.476958887729104
54	1.8	-0.23215964251475796	1.88712468986427	-0.44568969442720374	-0.24804515445625222	1.8845579940584007	-0.3870273228900069	-0.26545656451491784	1.7168481557015087	-0.4477177870666516													-0.21800645976402197	1.8901111496780074	-0.4973279700644493	-0.2098644483408601	1.7455880040834635	-0.4805051498815752	-0.21726670423821437	1.5948767328452063	-0.5504232376081666	-0.22229319359799804	1.557864243572134	-0.5860440625292525	-0.21813520423348606	1.5699984200107864	-0.6044114350713332	-0.21842513677310688	1.5776849672395106	-0.5288154641457818	-0.23003695130573965	2.0497637602250034	-0.4598747329084176	-0.23825137732108928	2.1144748541525966	-0.518613174030628	-0.250000600298385	2.0491948588043876	-0.3762423359187767	-0.26781721265932096	1.9710769214377353	-0.2729966011510305	-0.2989576735796954	1.9627061553409286	-0.14394703304526946	-0.2065578828158144	2.048230753528181	-0.5388309443649664	-0.19126335155683533	1.9695087876849369	-0.5707950115132406	-1.3062931566779916	1.8622304998686483	0.4871256794005629
55	1.8333333333333333	-0.23313458716952248	1.8904783551881328	-0.4409352654812099	-0.24605782242843466	1.888887679322663	-0.3811069956594132	-0.26545656451491784	1.7168481557015087	-0.4477177870666516													-0.22002208382535482	1.8931328366745614	-0.49546898904028225	-0.2098772553754347	1.7457818241481187	-0.48052417011909226	-0.21726670423821437	1.5948767328452063	-0.5504232376081666	-0.22229319359799804	1.557864243572134	-0.5860440625292525	-0.197950036677793	1.5906645051957333	-0.5224996444062668	-0.21842513677310688	1.5776849672395106	-0.5288154641457818	-0.22809275391031067	2.0494728423649056	-0.4534461464355126	-0.23637288979288631	2.116147503364506	-0.5126609197608473	-0.24969567884653107	2.0488172661551824	-0.36782758209946265	-0.26784808331059023	1.9726004294166093	-0.2734381940477063	-0.29713786946676113	1.96716581608505	-0.1661834169812994	-0.20663397458955307	2.0479719958909	-0.5386739912460958	-0.19231951929865237	1.9694878151776207	-0.5651186386415156	-1.3091222601884938	1.8652841889405232	0.4916305440002441
56	1.8666666666666667	-0.23197304063601815	1.8899346971372168	-0.4372717157640297	-0.24376857545985328	1.8877791224706066	-0.37410472289549646	-0.26545656451491784	1.7168481557015087	-0.4477177870666516													-0.21907147287041165	1.8909038567603162	-0.49173486964273333	-0.20989006241000926	1.7459756442127736	-0.4805431903566093	-0.21726670423821437	1.5948767328452063	-0.5504232376081666	-0.22229319359799804	1.557864243572134	-0.5860440625292525	-0.197950036677793	1.5906645051957333	-0.5224996444062668	-0.21842513677310688	1.5776849672395106	-0.5288154641457818	-0.228104601548179	2.04665871206852	-0.4444218365541501	-0.23732791110241228	2.1147308298151177	-0.5076603311229502	-0.24949351100339337	2.0472928282149687	-0.3593703693762855	-0.2660443303965788	1.9684864396766297	-0.27451220996952225	-0.29680313665613034	1.963778371591432	-0.17102370104561643	-0.20686414799564695	2.044678533040334	-0.5299436450511116	-0.19348053543340335	1.967209738247764	-0.5590741013382016	-1.329198630554093	1.8608386701507869	0.530412432241242
57	1.9	-0.23110275964739918	1.8837628670289894	-0.4242093830081919	-0.24271819621209786	1.8810605981086252	-0.3609380485545343	-0.26545656451491784	1.7168481557015087	-0.4477177870666516													-0.22021138179143632	1.886786791726044	-0.48550985483541265	-0.213425274850957	1.7413774920777791	-0.4804740198693038	-0.21726670423821437	1.5948767328452063	-0.5504232376081666	-0.22229319359799804	1.557864243572134	-0.5860440625292525	-0.197950036677793	1.5906645051957333	-0.5224996444062668	-0.21842513677310688	1.5776849672395106	-0.5288154641457818	-0.23097899670214636	2.038658210135106	-0.43493693622357876	-0.2386173424982258	2.1099192909796005	-0.5024449091888309	-0.2494549662581098	2.039175975518384	-0.3491607271462242	-0.2665319300077442	1.9615896179876444	-0.27388897577317206	-0.29974853797381784	1.953023345176638	-0.17598105811803053	-0.20704944887564442	2.040650241533144	-0.5293609996483751	-0.19127820614119778	1.9615175887308067	-0.5404467754613077	-0.16721041913965778	1.9402834971582372	-0.6764928651024745
